#!OML:ASF E:\Steps\Project 1\Capture day 1\Session 2\Subject.ASF
:FULLY-SPECIFIED
:DEGREES
267
root 14.7372 16.2977 21.1462 -158.554 -17.2395 162.57
lowerback -20.5265 0.372496 -4.87462
upperback 2.18075 2.00693 -3.17456
thorax 14.0491 0.627901 -0.192906
lowerneck -1.99318 4.40144 0.748718
upperneck 19.8741 5.19959 -1.32342
head 6.41059 2.06992 -0.275247
rclavicle -2.64384e-014 5.725e-014
rhumerus -30.378 -11.5336 -76.9198
rradius 34.7072
rwrist -1.83113
rhand -9.34951 -54.1063
rfingers 7.12502
rthumb 16.61 -83.4155
lclavicle -2.64384e-014 5.725e-014
lhumerus -37.3934 10.8039 74.4731
lradius 22.8627
lwrist -7.58927
lhand -21.2847 -15.3518
lfingers 7.12502
lthumb 5.09946 14.5669
rfemur -16.0207 3.1284 0.862376
rtibia 25.2823
rfoot -31.7836 -19.122
rtoes -12.5687
lfemur -57.7593 -0.331678 5.47547
ltibia 38.9404
lfoot 7.04601 6.68463
ltoes -30.2603
268
root 14.6654 16.2832 21.1173 -158.629 -17.2455 162.569
lowerback -20.7792 0.355407 -4.56239
upperback 2.37534 1.94642 -3.19984
thorax 14.4418 0.621192 -0.42032
lowerneck -1.81968 4.44718 0.735122
upperneck 19.4642 5.30731 -1.44219
head 6.25406 2.13003 -0.309464
rclavicle 4.39314e-014 3.18055e-015
rhumerus -29.9871 -11.2982 -77.0917
rradius 34.8052
rwrist -1.96277
rhand -9.53157 -54.779
rfingers 7.12502
rthumb 16.4347 -84.1028
lclavicle 4.39314e-014 3.18055e-015
lhumerus -37.2463 10.732 74.4493
lradius 23.0436
lwrist -7.64802
lhand -21.2084 -16.2294
lfingers 7.12502
lthumb 5.17312 13.6874
rfemur -15.9524 3.49315 0.722721
rtibia 25.8044
rfoot -32.2966 -19.4117
rtoes -12.8457
lfemur -57.254 -0.669817 5.88773
ltibia 37.7928
lfoot 7.51955 6.92683
ltoes -29.413
269
root 14.6107 16.2634 21.0731 -158.69 -16.944 162.426
lowerback -20.3823 0.338688 -4.9956
upperback 2.15733 1.97187 -3.0983
thorax 13.9305 0.602167 -0.048992
lowerneck -1.83983 4.38714 0.620115
upperneck 19.9966 5.1996 -1.52327
head 6.42497 2.03347 -0.321022
rclavicle -1.64991e-014 -7.95139e-015
rhumerus -30.266 -11.0215 -76.8657
rradius 34.7982
rwrist -1.89383
rhand -9.63321 -54.7487
rfingers 7.12502
rthumb 16.3368 -84.0806
lclavicle -1.64991e-014 -7.95139e-015
lhumerus -37.7084 10.6771 74.4405
lradius 23.0793
lwrist -7.67854
lhand -21.0131 -16.6226
lfingers 7.12502
lthumb 5.36173 13.2896
rfemur -15.8843 3.84732 0.367532
rtibia 26.1323
rfoot -32.5736 -19.5828
rtoes -13.3712
lfemur -56.44 -0.754029 6.11254
ltibia 36.3681
lfoot 8.02357 7.26312
ltoes -29.9828
270
root 14.5318 16.2523 21.0471 -158.576 -16.8685 162.082
lowerback -20.3321 0.293772 -4.94071
upperback 2.19622 1.90991 -3.25449
thorax 13.9572 0.582241 -0.278794
lowerneck -2.04764 4.43269 0.489745
upperneck 20.1454 5.25437 -1.41239
head 6.50255 2.05447 -0.255599
rclavicle 2.52457e-014 -6.36111e-015
rhumerus -29.9502 -11.0145 -76.9389
rradius 34.7068
rwrist -1.6414
rhand -9.75629 -53.7168
rfingers 7.12502
rthumb 16.2183 -83.0584
lclavicle 2.52457e-014 -6.36111e-015
lhumerus -37.6315 10.861 74.2458
lradius 23.0583
lwrist -7.7552
lhand -21.1032 -16.8665
lfingers 7.12502
lthumb 5.27467 13.0479
rfemur -15.7032 3.35993 -0.314868
rtibia 26.3064
rfoot -32.7951 -19.2589
rtoes -13.8305
lfemur -56.0193 -1.21896 6.03873
ltibia 35.1017
lfoot 8.52356 7.4951
ltoes -29.9485
271
root 14.461 16.233 21.0136 -158.53 -16.7422 162.066
lowerback -20.9475 0.370545 -4.71105
upperback 2.45002 2.03504 -3.37678
thorax 14.6323 0.649699 -0.511472
lowerneck -1.75218 4.41654 0.716299
upperneck 19.5668 5.26896 -1.55744
head 6.27723 2.0933 -0.346595
rclavicle 1.23246e-014 1.43125e-014
rhumerus -29.5469 -11.2031 -77.1252
rradius 34.832
rwrist -1.49144
rhand -9.93274 -53.1274
rfingers 7.12502
rthumb 16.0484 -82.4827
lclavicle 1.23246e-014 1.43125e-014
lhumerus -37.2651 10.5943 74.2153
lradius 23.1861
lwrist -7.74949
lhand -21.4505 -17.6932
lfingers 7.12502
lthumb 4.93938 12.2292
rfemur -15.595 3.42088 -0.59118
rtibia 26.3282
rfoot -32.8948 -19.35
rtoes -14.4847
lfemur -55.6 -1.27465 6.2635
ltibia 33.9907
lfoot 8.85242 7.58043
ltoes -29.0776
272
root 14.3729 16.2175 20.9907 -158.293 -16.8722 161.821
lowerback -21.0587 0.299089 -4.55425
upperback 2.42381 1.91134 -3.45522
thorax 14.6778 0.60854 -0.730985
lowerneck -1.69484 4.40089 0.782248
upperneck 19.6219 5.27182 -1.79285
head 6.2933 2.07679 -0.433129
rclavicle 1.74931e-014 1.90833e-014
rhumerus -29.542 -10.7811 -77.1969
rradius 35.1323
rwrist -1.88528
rhand -10.6323 -52.6479
rfingers 7.12502
rthumb 15.3746 -82.0562
lclavicle 1.74931e-014 1.90833e-014
lhumerus -37.2545 10.2738 74.3769
lradius 23.3306
lwrist -7.68591
lhand -21.7923 -16.3416
lfingers 7.12502
lthumb 4.60932 13.5882
rfemur -15.3928 2.94981 -1.09798
rtibia 26.3237
rfoot -33.0905 -19.3326
rtoes -15.6041
lfemur -55.5757 -1.67024 6.1416
ltibia 33.1582
lfoot 8.99833 7.51825
ltoes -28.4945
273
root 14.3112 16.1938 20.9443 -158.507 -16.8448 162.014
lowerback -20.6899 0.292182 -4.62263
upperback 2.33086 1.87212 -3.29158
thorax 14.34 0.586081 -0.515137
lowerneck -1.74729 4.49934 0.642418
upperneck 20.1405 5.36249 -1.70269
head 6.46291 2.09028 -0.373516
rclavicle -1.45113e-014 -1.59028e-015
rhumerus -29.8941 -10.2547 -77.1364
rradius 35.5681
rwrist -2.40972
rhand -8.85566 -55.4978
rfingers 7.12502
rthumb 17.0854 -84.7666
lclavicle -1.45113e-014 -1.59028e-015
lhumerus -37.5014 9.7211 74.6478
lradius 23.4389
lwrist -7.47253
lhand -22.1738 -14.3366
lfingers 7.12502
lthumb 4.24094 15.601
rfemur -15.0818 3.36734 -1.01894
rtibia 26.4632
rfoot -33.444 -19.6612
rtoes -16.3534
lfemur -54.9858 -1.71007 6.52988
ltibia 32.2683
lfoot 9.19189 7.29014
ltoes -28.7599
274
root 14.2373 16.1756 20.9077 -158.413 -16.7719 162.009
lowerback -20.6069 0.332541 -4.51818
upperback 2.22716 1.88898 -3.34494
thorax 14.1726 0.60644 -0.628181
lowerneck -1.72301 4.61974 0.57809
upperneck 20.3179 5.48253 -1.49965
head 6.5095 2.15023 -0.290923
rclavicle 1.2921e-014 -3.33958e-014
rhumerus -30.0906 -10.0324 -77.2123
rradius 35.9405
rwrist -2.57296
rhand -9.46232 -54.6639
rfingers 7.12502
rthumb 16.5014 -83.9822
lclavicle 1.2921e-014 -3.33958e-014
lhumerus -37.6274 9.26486 74.6541
lradius 23.5437
lwrist -7.21166
lhand -22.0548 -15.7908
lfingers 7.12502
lthumb 4.35581 14.1444
rfemur -14.9371 3.34787 -1.29527
rtibia 26.4521
rfoot -33.514 -19.742
rtoes -16.8831
lfemur -54.7411 -1.76115 6.6119
ltibia 31.5496
lfoot 9.49294 6.9956
ltoes -29.5918
275
root 14.1596 16.1581 20.8708 -158.33 -16.7099 161.935
lowerback -21.1576 0.293779 -4.4528
upperback 2.51076 1.88741 -3.37132
thorax 14.8404 0.602075 -0.701546
lowerneck -1.5833 4.53061 0.657961
upperneck 19.691 5.43535 -1.72771
head 6.29308 2.14678 -0.38459
rclavicle -2.14687e-014 2.54444e-014
rhumerus -29.5306 -9.95812 -77.3414
rradius 36.0292
rwrist -2.63361
rhand -8.94035 -55.699
rfingers 7.12502
rthumb 17.0039 -84.9747
lclavicle -2.14687e-014 2.54444e-014
lhumerus -37.1683 9.54575 74.527
lradius 23.5549
lwrist -7.44931
lhand -22.1385 -15.028
lfingers 7.12502
lthumb 4.27499 14.9089
rfemur -14.6676 3.4703 -1.63207
rtibia 26.2626
rfoot -33.4207 -20.0734
rtoes -17.8871
lfemur -54.4985 -1.85975 6.55888
ltibia 30.8571
lfoot 9.57243 6.99566
ltoes -29.0912
276
root 14.0715 16.1418 20.8477 -158.452 -16.8867 162.088
lowerback -20.9898 0.225376 -4.06921
upperback 2.59652 1.69 -3.28675
thorax 14.853 0.545911 -0.888836
lowerneck -1.53652 4.42954 0.610597
upperneck 19.3663 5.34793 -1.89592
head 6.18371 2.10312 -0.437382
rclavicle -3.33958e-014 2.54444e-014
rhumerus -29.2416 -9.77515 -77.2969
rradius 36.071
rwrist -2.36581
rhand -9.55971 -54.0552
rfingers 7.12502
rthumb 16.4076 -83.3813
lclavicle -3.33958e-014 2.54444e-014
lhumerus -37.1026 9.7137 74.4618
lradius 23.6264
lwrist -7.64417
lhand -22.2978 -15.2427
lfingers 7.12502
lthumb 4.12116 14.6972
rfemur -14.2508 3.23459 -1.66741
rtibia 26.2647
rfoot -33.6123 -20.0944
rtoes -19.1511
lfemur -54.3277 -2.06808 6.63484
ltibia 30.353
lfoot 9.61592 6.88475
ltoes -28.7668
277
root 13.9867 16.1224 20.8209 -158.451 -16.9283 162.233
lowerback -20.8322 0.23399 -3.86139
upperback 2.60442 1.63449 -3.20607
thorax 14.7712 0.538567 -0.931882
lowerneck -1.56025 4.3408 0.506955
upperneck 19.262 5.25211 -1.95913
head 6.15202 2.04946 -0.445746
rclavicle -1.63003e-014 -4.13472e-014
rhumerus -29.0398 -9.62677 -77.2095
rradius 36.1232
rwrist -2.19371
rhand -9.52052 -53.3152
rfingers 7.12502
rthumb 16.4453 -82.6381
lclavicle -1.63003e-014 -4.13472e-014
lhumerus -36.9553 9.54444 74.5446
lradius 23.5767
lwrist -7.37195
lhand -22.1977 -14.6816
lfingers 7.12502
lthumb 4.21783 15.2563
rfemur -14.128 3.01971 -1.78112
rtibia 26.5223
rfoot -34.041 -19.8651
rtoes -19.3248
lfemur -54.1983 -2.16609 6.74313
ltibia 29.9524
lfoot 9.53525 6.83089
ltoes -26.4804
278
root 13.8985 16.1061 20.7887 -158.042 -16.7835 161.812
lowerback -21.0461 0.232589 -4.16824
upperback 2.5954 1.73358 -3.35636
thorax 14.8849 0.558296 -0.898586
lowerneck -1.60369 4.22561 0.62947
upperneck 19.3494 5.10348 -2.10413
head 6.19225 1.97098 -0.519443
rclavicle 2.38542e-015 1.74931e-014
rhumerus -28.884 -9.47487 -77.2267
rradius 36.2426
rwrist -2.4018
rhand -9.60022 -53.8999
rfingers 7.12502
rthumb 16.3686 -83.2291
lclavicle 2.38542e-015 1.74931e-014
lhumerus -36.7533 9.26943 74.5945
lradius 23.6252
lwrist -7.03265
lhand -21.8422 -14.2154
lfingers 7.12502
lthumb 4.56111 15.7155
rfemur -14.1549 2.71111 -2.63543
rtibia 26.5928
rfoot -34.2266 -19.7297
rtoes -19.3833
lfemur -54.2179 -2.43357 6.29586
ltibia 29.469
lfoot 9.33839 7.06397
ltoes -22.2488
